<svg width="588" height="444" viewBox="0 0 588 444" fill="none" xmlns="http://www.w3.org/2000/svg">
<path d="M413.532 -103.908C418.912 -96.2009 424.683 -89.3969 430.028 -83.8056C440.373 -72.9814 452.961 -68.4765 465.808 -68.775C477.493 -69.0465 488.309 -73.2554 496.792 -77.3158C502.952 -80.2644 509.471 -83.9665 515.023 -87.121C517.003 -88.2439 518.858 -89.2977 520.53 -90.2231C527.931 -94.3167 532.621 -96.42 535.77 -97.1237C546.207 -99.4574 558.068 -100.667 567.863 -99.0861C577.34 -97.5564 582.077 -94.0496 584.506 -89.1473C600.887 -56.0779 627.654 -20.5118 670.85 -8.20129C702.33 0.770538 731.654 -11.0595 753.266 -24.0035C763.552 -30.1631 772.052 -37.0912 779.502 -43.4092C780.993 -44.6752 782.428 -45.9017 783.823 -47.0943L783.842 -47.1109C789.676 -52.1014 794.817 -56.4962 800.622 -60.6988L817.641 -73.0174L795.281 -103.908H788.657L775.985 -94.7355C768.661 -89.4343 761.955 -83.6926 756.041 -78.6284C754.764 -77.5347 753.524 -76.4727 752.323 -75.4533C745.257 -69.4612 738.894 -64.3731 731.677 -60.0507C713.486 -49.1553 697.019 -44.434 682.365 -48.6099C657.213 -55.7781 638.268 -76.8433 624.135 -103.908H413.532Z" fill="#513B98" fill-opacity="0.17"/>
<path d="M-13.0004 322.851C-12.2474 322.406 -11.5022 321.954 -10.7648 321.496C10.7365 308.126 27.9093 287.325 34.2538 265.884C39.6388 247.684 39.1751 228.37 31.3552 210.679C23.513 192.935 8.99149 178.441 -10.9081 168.619C-11.6009 168.277 -12.2985 167.94 -13.0004 167.611V218.479C-10.358 221.494 -8.43075 224.599 -7.07574 227.664C-3.72792 235.238 -3.14967 244.203 -6.03721 253.961C-7.24713 258.052 -9.61096 262.699 -13.0004 267.379V322.851Z" fill="#513B98" fill-opacity="0.1"/>
<path d="M-13.0004 85.2689L24.2412 73.1674L17.7484 53.1869C17.537 52.536 17.2978 51.7745 17.0314 50.9261L17.0305 50.9234C15.8005 47.0063 13.9884 41.2364 11.6249 35.9308C8.60703 29.1563 3.82058 20.9169 -4.4097 14.4377C-7.09164 12.3264 -9.96565 10.3146 -13.0004 8.41956V85.2689Z" fill="#513B98" fill-opacity="0.1"/>
<path d="M394.786 198.008C398.729 195.468 406.98 194.712 419.602 197.563C441.228 202.445 451.256 213.744 452.447 225.15C453.632 236.469 453.535 247.953 453.426 260.877L453.416 262.155C453.308 275.172 453.233 289.647 455.084 304.359C457.855 326.4 463.344 360.768 500.669 376.142C509.074 379.607 520.797 381.998 531.503 383.079C541.72 384.113 555.161 384.409 565.813 380.869C587.044 373.808 596.801 356.457 601.763 342.495C604.263 335.461 605.898 328.349 607.152 322.444C607.53 320.656 607.866 319.034 608.173 317.542C608.982 313.626 609.606 310.603 610.364 307.83C614.091 294.164 621.28 274.693 631.758 261.907C636.833 255.709 641.588 252.44 645.745 251.154C649.327 250.047 654.613 249.72 662.87 253.793C676.317 260.432 684.107 272.243 687.122 286.844C690.229 301.889 687.891 318.75 681.691 331.963C662.464 372.926 615.961 394.796 558.884 406.376C535.407 411.141 512.104 413.809 487.813 416.589H487.811C476.088 417.931 464.136 419.299 451.823 420.942C432.449 423.526 409.763 427.051 388.62 434.085C367.523 441.102 345.999 452.234 330.705 471.352C319.692 485.122 314.402 501.317 317.32 518.406C320.119 534.784 329.926 548.839 342.625 560.352C355.042 571.609 372.954 577.081 389.717 580.027C407.221 583.103 427.077 584.002 446.489 583.657C485.156 582.972 525.205 577.271 547.039 571.573C577.679 563.579 668.615 544.4 699.206 540.929L720.081 538.562L715.345 496.813L694.471 499.181C661.019 502.975 567.893 522.708 536.432 530.917C518.375 535.627 481.708 541.009 445.743 541.648C427.837 541.965 410.896 541.087 396.988 538.644C382.336 536.07 374.216 532.278 370.849 529.225C362.363 521.532 359.424 515.347 358.739 511.33C358.174 508.023 358.664 503.666 363.517 497.601C371.742 487.317 384.731 479.659 401.881 473.955C418.984 468.266 438.285 465.138 457.38 462.59C468.012 461.171 479.063 459.903 490.336 458.608H490.343H490.347C515.606 455.709 541.978 452.682 567.239 447.556C626.82 435.465 691.475 410.009 719.728 349.814C729.602 328.776 733.3 302.691 728.272 278.344C723.15 253.552 708.631 229.524 681.467 216.116C664.937 207.956 648.56 206.309 633.342 211.009C618.698 215.534 607.513 225.198 599.257 235.276C583.063 255.039 574.002 281.472 569.828 296.769C568.691 300.935 567.681 305.838 566.792 310.145L566.79 310.16C566.533 311.408 566.286 312.605 566.048 313.721C564.874 319.259 563.699 324.124 562.172 328.423C559.075 337.133 555.89 339.889 552.554 340.997C550.739 341.602 544.743 342.188 535.73 341.276C527.205 340.413 519.904 338.625 516.671 337.293C503.301 331.784 499.57 321.368 496.771 299.116C495.32 287.569 495.322 275.756 495.431 262.501L495.45 260.47C495.555 248.165 495.675 234.524 494.238 220.78C490.397 184.054 459.495 163.493 428.856 156.577C414.753 153.392 391.33 150.255 372.031 162.686C351.392 175.981 338.995 196.132 333.024 215.975C324.457 244.446 318.087 271.878 312.585 300.592C309.61 316.114 306.171 331.73 302.219 346.942C301.969 347.906 301.709 348.986 301.48 349.925L301.347 350.476C301.068 351.619 300.803 352.69 300.517 353.755C300.263 354.703 300.011 355.573 299.761 356.363L299.713 356.314C296.429 353.115 293.519 348.129 292.04 344.495C286.7 331.364 284.698 317.181 282.256 299.891C281.979 297.939 281.7 295.947 281.408 293.914C278.693 275.025 275.004 252.747 263.279 232.081C252.924 213.826 232.86 191.279 200.416 191.279C179.515 191.279 163.422 202.393 152.552 213.893C141.645 225.435 134.039 239.308 129.541 250.102C113.454 288.701 116.535 330.902 119.044 365.274L119.044 365.277C119.189 367.256 119.331 369.209 119.468 371.134C122.44 412.91 138.174 453.186 152.133 488.918L152.134 488.922C153.314 491.941 154.481 494.928 155.626 497.882L163.225 517.469L202.398 502.273L194.8 482.687C193.78 480.056 192.761 477.441 191.747 474.836C177.307 437.751 163.877 403.263 161.38 368.153L161.196 365.573C158.543 328.381 156.19 295.384 168.325 266.264C171.507 258.629 176.665 249.554 183.09 242.755C189.553 235.915 195.363 233.297 200.416 233.297C210.667 233.297 219.535 240.123 226.732 252.814C234.159 265.905 237.106 281.025 239.816 299.889C240.096 301.836 240.373 303.838 240.659 305.887C242.959 322.45 245.68 342.035 253.117 360.325C256.079 367.606 261.806 378.037 270.376 386.397C278.985 394.792 293.771 403.933 312.457 399.057C327.564 395.115 334.472 382.479 337.43 375.541C340.035 369.436 341.72 362.373 342.529 358.98C342.68 358.352 342.8 357.85 342.89 357.501C347.1 341.28 350.733 324.769 353.85 308.5C359.149 280.857 365.199 254.871 373.26 228.083C376.971 215.752 384.196 204.832 394.786 198.008Z" fill="#513B98" fill-opacity="0.1"/>
<path fill-rule="evenodd" clip-rule="evenodd" d="M317.742 72.0071C294.355 47.7694 267.35 21.1451 226.595 11.001C206.958 6.11284 179.633 -0.529107 152.491 8.86059C127.118 17.6381 111.594 35.058 100.71 53.2626C95.3639 62.2052 90.9753 71.6006 87.0836 80.3886C85.767 83.3615 84.5325 86.2036 83.3348 88.9612L83.3334 88.9648L83.331 88.9696L83.3294 88.9738L83.3268 88.9795L83.3182 88.9997C80.818 94.7561 78.4774 100.145 75.8836 105.591C69.3085 119.398 61.9201 141.755 77.3286 163.531C83.6609 172.479 93.3102 177.882 101.594 180.71C109.933 183.556 120.592 185.063 130.728 182.321C145.76 178.256 160.257 166.491 167.886 159.554C173.547 154.405 177.191 148.06 179.174 144.606L179.375 144.255L179.541 143.967C182.022 139.673 182.814 138.627 183.417 138.068C186.005 135.677 188.683 134.808 194.06 136.011C200.431 137.438 208.049 141.455 216.318 146.978C217.631 147.854 219.085 148.963 221.337 150.678L221.839 151.06C224.123 152.797 227.095 155.047 230.32 157.132C236.297 160.993 246.537 166.607 259.121 165.518C277.378 163.938 296.874 155.043 309.958 141.846C316.942 134.805 323.455 124.349 326.558 113.103C329.61 102.04 330.446 85.1731 317.742 72.0071ZM216.448 51.7745C243.923 58.6137 263.399 76.2729 286.429 100.069C286.376 100.539 286.265 101.161 286.052 101.928C285.573 103.67 284.706 105.695 283.517 107.712C282.321 109.742 281.063 111.313 280.122 112.263C274.405 118.028 264.712 122.625 256.291 123.576C255.848 123.402 254.838 122.946 253.121 121.837C251.407 120.732 249.596 119.383 247.289 117.627L246.625 117.12C244.652 115.616 242.127 113.689 239.657 112.038C230.352 105.823 217.446 98.19 203.242 95.0093C188.045 91.6062 170.097 93.1706 154.905 107.206C149.173 112.5 145.518 118.849 143.475 122.4C143.366 122.589 143.262 122.769 143.162 122.942C141.968 125.009 141.255 126.223 140.55 127.259C139.914 128.192 139.616 128.469 139.616 128.469C132.484 134.955 124.456 140.432 119.879 141.728C119.791 141.736 119.424 141.772 118.75 141.719C117.746 141.642 116.488 141.396 115.167 140.946C113.843 140.493 112.767 139.942 112.036 139.455C111.742 139.259 111.563 139.112 111.471 139.035C110.388 137.425 110.159 136.19 110.276 134.52C110.443 132.146 111.411 128.713 113.819 123.658C116.731 117.542 119.561 111.032 122.211 104.931L122.214 104.924C123.346 102.32 124.444 99.7921 125.503 97.4022C129.222 89.0033 132.78 81.5043 136.774 74.824C144.571 61.7823 153.304 53.0401 166.228 48.5692C180.012 43.801 195.532 46.5685 216.448 51.7745Z" fill="#513B98" fill-opacity="0.1"/>
<path d="M50.7961 354.9L39.5686 337.144L4.05448 359.6L15.2822 377.357C24.1949 391.453 27.5597 405.807 31.6983 423.46C32.5792 427.217 33.4949 431.124 34.5067 435.211C40.402 459.014 42.117 475.863 31.5791 491.18L19.672 508.49L54.2895 532.303L66.1967 514.996C88.162 483.065 81.2531 449.177 75.2922 425.11C74.5611 422.158 73.8382 419.011 73.0796 415.708C68.9864 397.891 63.8554 375.554 50.7961 354.9Z" fill="#513B98" fill-opacity="0.1"/>
<path d="M479.861 21.9724C461.541 16.5599 448.585 13.1545 433.475 14.0434C425.979 14.4844 418.03 16.7489 408.868 20.4135C404.313 22.2352 399.716 24.2938 394.804 26.5294C394.111 26.8449 393.407 27.1653 392.697 27.4895C388.512 29.3986 384.052 31.432 379.627 33.3071L360.285 41.5035L343.891 2.81567L363.234 -5.38094C367.092 -7.01458 370.963 -8.78017 375.172 -10.6993C375.903 -11.0329 376.644 -11.3712 377.398 -11.7143C382.354 -13.9696 387.724 -16.3835 393.264 -18.5993C404.29 -23.0097 417.042 -27.0803 431.007 -27.9018C454.261 -29.2695 473.636 -23.6799 491.766 -18.3232C514.107 -11.7222 533.019 -3.41683 552.969 8.16661C561.249 12.9743 568.682 16.9504 575.558 19.2429L595.489 25.8865L582.201 65.7479L562.272 59.1045C550.946 55.3292 540.276 49.3837 531.87 44.5031C514.666 34.5134 498.827 27.5765 479.861 21.9724Z" fill="#513B98" fill-opacity="0.1"/>
</svg>
